{"title":"creed 2015 720p","uid":13513387,"size":1186960249,"categoryP":"video","categoryS":"hd___movies","magnet":"?xt=urn:btih:0fc677b8431dc7c908f08f812ea96d4a38ef41b5&amp;dn=creed+2015+720p+&amp;tr=udp%3A%2F%2Ftracker.leechers-paradise.org%3A6969&amp;tr=udp%3A%2F%2Fzer0day.ch%3A1337&amp;tr=udp%3A%2F%2Fopen.demonii.com%3A1337&amp;tr=udp%3A%2F%2Ftracker.coppersurfer.tk%3A6969&amp;tr=udp%3A%2F%2Fexodus.desync.com%3A6969","seeders":0,"leechers":1,"uploader":"Capi007","files":1,"time":1455308463,"description":"Creed 2015 720p \r\n\r\nmedia info: \r\nVideo\r\nID                          : 1\r\nFormat                      : AVC\r\nFormat/Info                 : Advanced Video Codec\r\nFormat profile              :   \r\nFormat settings, CABAC      : No\r\nFormat settings, ReFrames   : 1 frame\r\nCodec ID                    : avc1\r\nCodec ID/Info               : Advanced Video Coding\r\nDuration                    : 2h 13mn\r\nBit rate                    : 1 000 Kbps\r\nWidth                       : 1 280 pixels\r\nHeight                      : 536 pixels\r\nDisplay aspect ratio        : 2.40:1\r\nFrame rate mode             : Variable\r\nFrame rate                  : 23.976 (23976/1000) fps\r\nMinimum frame rate          : 23.974 fps\r\nMaximum frame rate          : 23.981 fps\r\nColor space                 : YUV\r\nChroma subsampling          : 4:2:0\r\nBit depth                   : 8 bits\r\nScan type                   : Progressive\r\nBits/(Pixel*Frame)          : 0.061\r\nStream size                 : 974 MiB (86%)\r\nWriting library             : x264 core 142 r2479 dd79a61\r\nEncoding settings           : cabac=0 / ref=1 / deblock=0:0:0 / analyse=0:0 / me=dia / subme=0 / psy=1 / psy_rd=1.00:0.00 / mixed_ref=0 / me_range=16 / chroma_me=1 / trellis=0 / 8x8dct=0 / cqm=0 / deadzone=21,11 / fast_pskip=1 / chroma_qp_offset=0 / threads=6 / lookahead_threads=1 / sliced_threads=0 / nr=0 / decimate=1 / interlaced=0 / bluray_compat=0 / constrained_intra=0 / bframes=0 / weightp=0 / keyint=240 / keyint_min=24 / scenecut=0 / intra_refresh=0 / rc_lookahead=0 / rc=abr / mbtree=0 / bitrate=1000 / ratetol=1.0 / qcomp=0.60 / qpmin=0 / qpmax=69 / qpstep=4 / vbv_maxrate=20000 / vbv_bufsize=25000 / nal_hrd=none / filler=0 / ip_ratio=1.40 / aq=0\r\nEncoded date                : UTC 2036-02-06 06:28:16\r\nTagged date                 : UTC 2036-02-06 06:28:16\r\nColor range                 : Limited\r\nColor primaries             : BT.709\r\nTransfer characteristics    : BT.709\r\nMatrix coefficients         : BT.709\r\n\r\nAudio\r\nID                          : 2\r\nFormat                      : AAC\r\nFormat/Info                 : Advanced Audio Codec\r\nFormat profile              : LC\r\nCodec ID                    : 40\r\nDuration                    : 2h 13mn\r\nBit rate mode               : Variable\r\nBit rate                    : 161 Kbps\r\nChannel(s)                  : 2 channels\r\nChannel positions           : Front: L R\r\nSampling rate               : 48.0 KHz\r\nFrame rate                  : 46.875 fps (1024 spf)\r\nCompression mode            : Lossy\r\nStream size                 : 153 MiB (14%)\r\nTitle                       : Stereo / Stereo\r\nLanguage                    : English\r\nDefault                     : Yes\r\nAlternate group             : 1\r\nEncoded date                : UTC 2036-02-06 06:28:16\r\nTagged date                 : UTC 2036-02-06 06:28:16\r\n\r\n\r\nencoded &amp; uploaded by capi007","torrent":{"xt":"urn:btih:0fc677b8431dc7c908f08f812ea96d4a38ef41b5","amp;dn":"creed+2015+720p+","amp;tr":["udp%3A%2F%2Ftracker.leechers-paradise.org%3A6969","udp%3A%2F%2Fzer0day.ch%3A1337","udp%3A%2F%2Fopen.demonii.com%3A1337","udp%3A%2F%2Ftracker.coppersurfer.tk%3A6969","udp%3A%2F%2Fexodus.desync.com%3A6969"],"infoHash":"0fc677b8431dc7c908f08f812ea96d4a38ef41b5","infoHashBuffer":{"type":"Buffer","data":[15,198,119,184,67,29,199,201,8,240,143,129,46,169,109,74,56,239,65,181]},"announce":[],"urlList":[]}}